<svg xmlns="http://www.w3.org/2000/svg" xmlns:xlink="http://www.w3.org/1999/xlink" preserveAspectRatio="xMidYMid" width="950" height="260" viewBox="0 0 950 260">
  <defs>
    <style>
      .frontuxer_logo_player {
        /*fill: #363636;*/
        fill: #fff;
        fill-opacity: 0.5;
        fill-rule: evenodd;
      }
    </style>
  </defs>
  <path d="M930.794,131.866 C922.525,131.866 916.356,133.918 912.285,138.020 C908.214,142.123 906.178,148.340 906.178,156.671 L906.178,210.163 L892.640,210.163 L879.006,210.163 L879.006,107.156 L891.882,107.156 L904.853,107.156 L904.853,125.617 C905.800,123.598 906.872,121.641 908.072,119.747 C914.446,109.523 922.683,104.410 932.782,104.410 L938.936,104.505 L938.936,132.245 C936.537,131.993 933.824,131.866 930.794,131.866 ZM795.427,165.381 C796.057,173.523 797.856,179.615 800.823,183.654 C804.610,188.704 810.921,191.228 819.758,191.228 C823.860,191.228 827.664,190.060 831.167,187.725 C834.670,185.390 836.767,182.581 837.463,179.298 L865.108,179.298 C862.772,189.776 857.359,197.982 848.871,203.914 C840.381,209.848 829.761,212.814 817.013,212.814 C801.359,212.814 789.288,207.985 780.799,198.328 C772.310,188.671 768.065,174.912 768.065,157.050 C768.065,140.576 772.388,127.685 781.036,118.375 C789.683,109.065 801.675,104.410 817.013,104.410 C832.729,104.410 844.831,109.160 853.321,118.659 C861.809,128.159 866.055,141.681 866.055,159.227 C866.180,161.248 866.022,163.298 865.581,165.381 L795.427,165.381 ZM832.824,133.570 C829.352,128.964 823.955,126.659 816.634,126.659 C809.628,126.659 804.294,129.342 800.634,134.706 C798.362,138.115 796.720,142.564 795.711,148.055 L837.747,148.055 C837.115,141.871 835.475,137.042 832.824,133.570 ZM712.968,245.003 C708.736,249.421 701.190,251.631 690.331,251.631 L677.360,251.347 L677.360,229.571 C677.990,229.823 679.727,229.950 682.567,229.950 C689.825,229.950 694.558,228.466 696.769,225.500 C698.156,223.607 699.545,219.692 700.934,213.760 L662.521,107.156 L677.470,107.156 L692.511,107.156 L714.926,183.559 L714.948,183.559 L736.753,107.156 L750.951,107.156 L765.150,107.156 L728.226,212.340 C722.287,229.697 717.201,240.585 712.968,245.003 ZM630.540,210.163 L630.540,210.068 C629.340,205.902 628.551,201.831 628.173,197.855 L628.078,197.666 C619.557,207.765 608.511,212.814 594.942,212.814 C585.410,212.814 577.742,210.084 571.935,204.624 C566.128,199.166 563.225,191.985 563.225,183.085 C563.225,173.682 565.844,166.155 571.083,160.505 C576.322,154.857 583.959,151.307 593.995,149.854 L611.889,147.393 C616.559,146.763 620.440,145.689 623.534,144.174 C624.859,143.544 625.884,142.408 626.611,140.765 C627.335,139.125 627.605,137.452 627.415,135.748 C627.037,132.845 625.553,130.573 622.966,128.931 C619.872,126.975 615.423,125.996 609.616,125.996 C604.440,125.996 600.400,127.259 597.498,129.783 C594.594,132.308 593.048,135.875 592.859,140.481 L566.823,140.481 C567.391,128.427 571.493,119.401 579.131,113.404 C586.767,107.409 597.971,104.410 612.741,104.410 C625.553,104.410 635.667,107.111 643.084,112.512 C650.500,117.915 654.209,125.290 654.209,134.640 L654.209,192.256 C654.209,196.868 654.587,200.105 655.345,201.969 C656.102,203.833 657.617,205.302 659.889,206.376 L659.889,206.470 L659.889,210.163 L645.214,210.163 L630.540,210.163 ZM627.605,160.269 C624.448,162.036 620.282,163.457 615.108,164.529 L605.072,166.423 C600.338,167.307 596.740,168.931 594.279,171.298 C591.817,173.665 590.587,176.648 590.587,180.245 C590.587,184.349 591.690,187.568 593.900,189.902 C596.109,192.238 599.202,193.405 603.178,193.405 C611.889,193.405 618.831,190.344 624.007,184.222 C625.016,183.023 625.868,181.256 626.563,178.920 C627.257,176.585 627.605,174.313 627.605,172.103 L627.605,160.269 ZM521.966,210.163 L521.966,70.990 L535.504,70.990 L549.138,70.990 L549.138,210.163 L535.599,210.163 L521.966,210.163 ZM457.132,160.458 C445.896,160.396 436.176,160.458 427.972,160.647 L427.972,210.163 L413.486,210.163 L398.906,210.163 L398.906,70.990 L413.392,70.990 L457.132,70.990 C472.974,70.990 485.029,74.698 493.298,82.114 C501.566,89.531 505.700,100.339 505.700,114.540 C505.700,129.563 501.566,140.971 493.298,148.766 C485.029,156.562 472.974,160.458 457.132,160.458 ZM470.528,99.913 C466.457,96.599 460.351,94.942 452.209,94.942 L427.972,94.942 L427.972,136.505 L452.209,136.505 C460.351,136.505 466.457,134.706 470.528,131.109 C474.599,127.511 476.635,122.083 476.635,114.824 C476.635,108.197 474.599,103.227 470.528,99.913 ZM375.232,39.263 C373.479,41.029 372.603,43.704 372.603,47.290 L372.603,70.311 L366.777,70.311 L360.909,70.311 L360.909,25.980 L366.451,25.980 L372.033,25.980 L372.033,33.925 C372.440,33.056 372.902,32.214 373.418,31.399 C376.162,26.999 379.707,24.798 384.053,24.798 L386.701,24.839 L386.701,36.777 C385.669,36.669 384.501,36.614 383.197,36.614 C379.638,36.614 376.984,37.497 375.232,39.263 ZM386.428,107.156 L349.221,210.163 L335.114,210.163 L320.913,210.163 L283.705,107.156 L298.656,107.156 L313.701,107.156 L335.618,184.009 L335.725,184.009 L357.840,107.156 L372.135,107.156 L386.428,107.156 ZM324.939,51.038 C325.211,54.542 325.985,57.164 327.262,58.902 C328.892,61.076 331.608,62.162 335.411,62.162 C337.176,62.162 338.813,61.660 340.321,60.654 C341.828,59.650 342.731,58.441 343.030,57.028 L354.928,57.028 C353.923,61.537 351.593,65.069 347.940,67.622 C344.286,70.175 339.716,71.452 334.229,71.452 C327.492,71.452 322.297,69.374 318.644,65.218 C314.990,61.062 313.164,55.140 313.164,47.453 C313.164,40.363 315.024,34.815 318.746,30.808 C322.467,26.802 327.629,24.798 334.229,24.798 C340.993,24.798 346.202,26.843 349.855,30.930 C353.508,35.019 355.335,40.839 355.335,48.390 C355.390,49.260 355.321,50.142 355.132,51.038 L324.939,51.038 ZM341.034,37.348 C339.540,35.365 337.217,34.373 334.066,34.373 C331.051,34.373 328.755,35.528 327.180,37.837 C326.202,39.304 325.496,41.219 325.062,43.582 L343.153,43.582 C342.881,40.920 342.175,38.842 341.034,37.348 ZM304.908,70.311 L297.703,70.311 L289.991,56.746 L282.284,70.311 L275.237,70.311 L268.189,70.311 L283.265,47.656 L268.800,25.980 L275.854,25.980 L282.908,25.980 L290.378,39.083 L297.796,25.980 L304.608,25.980 L311.461,25.980 L297.037,47.860 L312.072,70.311 L304.908,70.311 ZM265.357,198.328 C255.889,207.985 243.044,212.814 226.824,212.814 C210.729,212.814 197.932,207.985 188.433,198.328 C178.933,188.671 174.184,175.639 174.184,159.227 C174.184,142.439 178.933,129.106 188.433,119.227 C197.932,109.349 210.729,104.410 226.824,104.410 C243.044,104.410 255.889,109.349 265.357,119.227 C274.824,129.106 279.558,142.439 279.558,159.227 C279.558,175.639 274.824,188.671 265.357,198.328 ZM245.286,135.227 C241.056,129.830 234.902,127.132 226.824,127.132 C218.744,127.132 212.606,129.830 208.409,135.227 C204.211,140.623 202.114,148.529 202.114,158.943 C202.114,169.106 204.211,176.837 208.409,182.139 C212.606,187.441 218.744,190.091 226.824,190.091 C234.902,190.091 241.056,187.441 245.286,182.139 C249.513,176.837 251.629,169.106 251.629,158.943 C251.629,148.529 249.513,140.623 245.286,135.227 ZM238.942,71.941 C230.738,71.941 224.661,69.965 220.708,66.012 C216.756,62.060 214.766,55.969 214.739,47.738 L214.739,10.415 L220.973,10.415 L227.248,10.415 L227.248,48.145 C227.248,52.438 228.219,55.657 230.161,57.802 C232.103,59.948 235.030,61.021 238.942,61.021 C243.125,61.021 246.113,60.037 247.906,58.067 C249.699,56.098 250.595,52.790 250.595,48.145 L250.595,10.415 L256.829,10.415 L263.104,10.415 L263.104,47.738 C263.131,56.295 261.250,62.467 257.461,66.257 C253.671,70.046 247.499,71.941 238.942,71.941 ZM192.724,68.579 C190.918,67.099 190.015,64.675 190.015,61.306 L190.015,34.170 L183.862,34.170 L183.862,25.980 L190.015,25.980 L190.015,14.041 L201.709,14.041 L201.709,25.980 L208.839,25.980 L208.839,34.170 L201.709,34.170 L201.709,59.350 C201.709,60.383 202.014,61.062 202.625,61.388 C203.237,61.714 204.506,61.877 206.435,61.877 L208.839,61.877 L208.839,70.555 C206.883,70.718 204.479,70.800 201.627,70.800 C197.498,70.800 194.531,70.060 192.724,68.579 ZM168.020,70.311 L168.020,42.604 C168.020,39.861 167.430,37.830 166.248,36.513 C165.066,35.195 163.253,34.536 160.808,34.536 C157.738,34.536 155.382,35.460 153.739,37.307 C152.095,39.155 151.274,41.816 151.274,45.293 L151.274,70.311 L145.447,70.311 L139.580,70.311 L139.580,25.980 L145.121,25.980 L150.704,25.980 L150.704,32.540 C151.165,31.752 151.667,31.006 152.211,30.299 C155.090,26.632 159.273,24.798 164.761,24.798 C169.432,24.798 173.093,26.184 175.742,28.954 C178.390,31.725 179.714,35.569 179.714,40.485 L179.714,70.311 L173.888,70.311 L168.020,70.311 ZM160.191,141.902 L160.191,210.163 L146.653,210.163 L133.019,210.163 L133.019,149.665 C133.019,141.965 131.753,136.268 129.220,132.576 C126.688,128.884 122.765,127.038 117.448,127.038 C111.750,127.038 107.398,128.789 104.392,132.292 C101.386,135.795 99.883,140.829 99.883,147.393 L99.883,210.163 L86.344,210.163 L72.711,210.163 L72.711,145.215 C72.711,139.030 71.388,134.455 68.745,131.487 C66.101,128.521 62.042,127.038 56.567,127.038 C51.091,127.038 46.890,128.789 43.964,132.292 C41.037,135.795 39.574,140.829 39.574,147.393 L39.574,210.163 L26.036,210.163 L12.403,210.163 L12.403,107.156 L25.278,107.156 L38.249,107.156 L38.249,123.724 C39.446,120.821 40.958,118.233 42.786,115.960 C48.771,108.261 57.468,104.410 68.874,104.410 C77.948,104.410 85.383,107.472 91.182,113.594 C93.449,115.929 95.245,118.517 96.569,121.357 L99.887,115.960 C105.513,108.261 113.700,104.410 124.445,104.410 C135.633,104.410 144.388,107.724 150.709,114.351 C157.030,120.978 160.191,130.162 160.191,141.902 ZM110.781,71.452 C103.854,71.452 98.347,69.374 94.259,65.218 C90.170,61.062 88.127,55.453 88.127,48.390 C88.127,41.165 90.170,35.426 94.259,31.175 C98.347,26.924 103.854,24.798 110.781,24.798 C117.762,24.798 123.290,26.924 127.365,31.175 C131.439,35.426 133.476,41.165 133.476,48.390 C133.476,55.453 131.439,61.062 127.365,65.218 C123.290,69.374 117.762,71.452 110.781,71.452 ZM118.726,38.061 C116.906,35.738 114.258,34.577 110.781,34.577 C107.304,34.577 104.662,35.738 102.856,38.061 C101.049,40.383 100.147,43.786 100.147,48.268 C100.147,52.641 101.049,55.969 102.856,58.250 C104.662,60.532 107.304,61.673 110.781,61.673 C114.258,61.673 116.906,60.532 118.726,58.250 C120.546,55.969 121.456,52.641 121.456,48.268 C121.456,43.786 120.546,40.383 118.726,38.061 ZM74.546,39.263 C72.794,41.029 71.918,43.704 71.918,47.290 L71.918,70.311 L66.091,70.311 L60.224,70.311 L60.224,25.980 L65.765,25.980 L71.348,25.980 L71.348,33.925 C71.755,33.056 72.217,32.214 72.733,31.399 C75.476,26.999 79.021,24.798 83.368,24.798 L86.016,24.839 L86.016,36.777 C84.983,36.669 83.816,36.614 82.512,36.614 C78.953,36.614 76.298,37.497 74.546,39.263 ZM24.865,34.659 L51.105,34.659 L51.105,39.793 L51.105,44.967 L24.865,44.967 L24.865,70.311 L18.631,70.311 L12.356,70.311 L12.356,10.415 L54.976,10.415 L54.976,15.712 L54.976,21.050 L24.865,21.050 L24.865,34.659 Z" class="frontuxer_logo_player"/>
</svg>
