<svg xmlns="http://www.w3.org/2000/svg" xmlns:xlink="http://www.w3.org/1999/xlink" preserveAspectRatio="xMidYMid" width="438" height="302" viewBox="0 0 438 302">
  <defs>
    <style>
      .cls-1 {
        fill: #000;
      }

      .cls-1, .cls-2, .cls-3 {
        fill-rule: evenodd;
      }

      .cls-2 {
        fill: #b5b5b5;
      }

      .cls-3 {
        fill: #e8e8e8;
      }
    </style>
  </defs>
  <path d="M386.000,300.000 L311.833,188.750 L237.000,301.000 L187.000,301.000 L286.833,151.250 L286.000,150.000 L286.167,149.750 L211.000,37.000 L211.000,202.000 C211.000,202.000 211.000,252.000 186.000,277.000 C161.000,302.000 111.000,302.000 111.000,302.000 L100.000,302.000 C100.000,302.000 50.000,302.000 25.000,277.000 C-0.000,252.000 -0.000,202.000 -0.000,202.000 L-0.000,1.000 L50.000,1.000 L50.000,202.000 C50.000,202.000 50.000,252.000 100.000,252.000 C104.303,252.000 107.933,252.000 111.000,252.000 C111.000,252.000 161.000,252.000 161.000,202.000 L161.000,1.000 L187.000,1.000 L211.000,1.000 L237.000,1.000 L311.166,112.250 L386.000,-0.000 L436.000,-0.000 L336.167,149.750 L337.000,151.000 L336.833,151.250 L436.000,300.000 L386.000,300.000 Z" class="cls-1"/>
  <path d="M111.000,302.000 L100.000,302.000 C100.000,302.000 81.136,301.990 60.790,296.198 C105.479,282.668 151.319,270.449 198.191,259.612 C194.992,266.007 190.996,272.003 186.000,277.000 C161.000,302.000 111.000,302.000 111.000,302.000 ZM187.000,301.000 L217.508,255.238 C236.690,250.985 256.039,246.962 275.550,243.175 L237.000,301.000 L187.000,301.000 ZM340.369,231.554 C355.398,229.085 370.520,226.767 385.718,224.578 L436.000,300.000 L386.000,300.000 L340.369,231.554 Z" class="cls-2"/>
  <path d="M187.000,301.000 L187.516,300.226 C207.202,295.163 227.078,290.341 247.147,285.779 L237.000,301.000 L187.000,301.000 ZM361.293,262.939 C376.237,260.348 391.280,257.910 406.397,255.596 L436.000,300.000 L386.000,300.000 L361.293,262.939 Z" class="cls-3"/>
  <path d="M161.000,34.476 L161.000,1.000 L187.000,1.000 L211.000,1.000 L237.000,1.000 L269.024,49.036 C250.756,47.001 232.598,44.763 214.552,42.329 L211.000,37.000 L211.000,41.847 C194.234,39.559 177.564,37.104 161.000,34.476 ZM50.000,14.055 C33.209,10.530 16.537,6.836 -0.000,2.962 L-0.000,1.000 L50.000,1.000 L50.000,14.055 ZM386.000,-0.000 L436.000,-0.000 L396.131,59.803 C380.118,58.870 364.179,57.775 348.308,56.537 L386.000,-0.000 Z" class="cls-2"/>
  <path d="M187.000,1.000 L211.000,1.000 L237.000,1.000 L246.493,15.239 C217.768,10.996 189.353,6.235 161.253,1.000 L187.000,1.000 ZM386.000,-0.000 L436.000,-0.000 L413.429,33.856 C397.594,32.648 381.830,31.293 366.142,29.786 L386.000,-0.000 Z" class="cls-3"/>
</svg>
