<svg xmlns="http://www.w3.org/2000/svg" xmlns:xlink="http://www.w3.org/1999/xlink" preserveAspectRatio="xMidYMid" width="1017" height="302" viewBox="0 0 1017 302">
  <defs>
    <style>
      .cls-1 {
        fill: #000;
      }

      .cls-1, .cls-2, .cls-3 {
        fill-rule: evenodd;
      }

      .cls-2 {
        fill: #b5b5b5;
      }

      .cls-3 {
        fill: #e8e8e8;
      }
    </style>
  </defs>
  <path d="M916.000,300.000 L866.000,300.000 L966.000,150.000 L866.000,-0.000 L916.000,-0.000 L1016.000,150.000 L916.000,300.000 ZM741.583,179.004 L719.614,179.004 L719.614,147.146 L687.690,93.992 L712.703,93.992 L731.069,126.785 L748.825,93.992 L772.992,93.992 L741.583,146.118 L741.583,179.004 ZM659.601,179.004 L636.426,147.831 L626.248,147.831 L626.248,179.004 L604.393,179.004 L604.393,93.992 L641.237,93.992 C646.272,93.992 650.600,94.278 654.224,94.849 C657.847,95.419 661.241,96.657 664.407,98.560 C667.611,100.463 670.157,102.927 672.045,105.953 C673.933,108.979 674.877,112.776 674.877,117.343 C674.877,123.623 673.418,128.743 670.500,132.701 C667.583,136.660 663.415,139.952 658.000,142.578 L686.434,179.004 L659.601,179.004 ZM650.848,114.546 C649.971,113.024 648.464,111.825 646.329,110.949 C644.841,110.340 643.105,109.969 641.123,109.835 C639.139,109.703 636.832,109.636 634.200,109.636 L626.248,109.636 L626.248,132.530 L632.998,132.530 C636.507,132.530 639.444,132.359 641.809,132.016 C644.174,131.674 646.157,130.894 647.759,129.675 C649.284,128.496 650.400,127.192 651.106,125.764 C651.811,124.337 652.164,122.424 652.164,120.027 C652.164,117.895 651.725,116.068 650.848,114.546 ZM552.574,179.004 L530.605,179.004 L530.605,110.435 L504.002,110.435 L504.002,93.992 L579.177,93.992 L579.177,110.435 L552.574,110.435 L552.574,179.004 ZM386.000,300.000 L311.833,188.750 L237.000,301.000 L187.000,301.000 L286.833,151.250 L286.000,150.000 L286.166,149.750 L211.000,37.000 L211.000,202.000 C211.000,202.000 211.000,252.000 186.000,277.000 C161.000,302.000 111.000,302.000 111.000,302.000 L100.000,302.000 C100.000,302.000 50.000,302.000 25.000,277.000 C-0.000,252.000 -0.000,202.000 -0.000,202.000 L-0.000,1.000 L50.000,1.000 L50.000,202.000 C50.000,202.000 50.000,252.000 100.000,252.000 C104.303,252.000 107.933,252.000 111.000,252.000 C111.000,252.000 161.000,252.000 161.000,202.000 L161.000,1.000 L187.000,1.000 L211.000,1.000 L237.000,1.000 L311.166,112.250 L386.000,-0.000 L436.000,-0.000 L336.166,149.750 L337.000,151.000 L336.833,151.250 L436.000,300.000 L386.000,300.000 Z" class="cls-1"/>
  <path d="M111.000,302.000 L100.000,302.000 C100.000,302.000 81.136,301.990 60.790,296.198 C105.479,282.668 151.319,270.449 198.191,259.612 C194.992,266.007 190.996,272.003 186.000,277.000 C161.000,302.000 111.000,302.000 111.000,302.000 ZM187.000,301.000 L217.508,255.238 C236.690,250.985 256.039,246.962 275.550,243.175 L237.000,301.000 L187.000,301.000 ZM340.369,231.554 C355.398,229.085 370.520,226.767 385.718,224.578 L436.000,300.000 L386.000,300.000 L340.369,231.554 ZM916.000,300.000 L866.000,300.000 L927.544,207.684 C943.351,208.936 959.089,210.330 974.747,211.880 L916.000,300.000 Z" class="cls-2"/>
  <path d="M187.000,301.000 L187.516,300.226 C207.202,295.163 227.078,290.341 247.147,285.779 L237.000,301.000 L187.000,301.000 ZM361.293,262.939 C376.237,260.348 391.280,257.910 406.397,255.596 L436.000,300.000 L386.000,300.000 L361.293,262.939 ZM866.000,300.000 L911.446,231.831 C927.485,232.723 943.454,233.774 959.352,234.972 L916.000,300.000 L866.000,300.000 Z" class="cls-3"/>
  <path d="M161.000,34.476 L161.000,1.000 L187.000,1.000 L211.000,1.000 L237.000,1.000 L269.024,49.036 C250.756,47.001 232.598,44.763 214.552,42.329 L211.000,37.000 L211.000,41.847 C194.234,39.559 177.564,37.104 161.000,34.476 ZM50.000,14.055 C33.209,10.530 16.537,6.836 -0.000,2.962 L-0.000,1.000 L50.000,1.000 L50.000,14.055 ZM386.000,-0.000 L436.000,-0.000 L396.131,59.803 C380.118,58.870 364.179,57.775 348.308,56.537 L386.000,-0.000 ZM891.844,38.766 L866.000,-0.000 L916.000,-0.000 L937.132,31.698 C922.122,34.194 907.024,36.548 891.844,38.766 Z" class="cls-2"/>
  <path d="M187.000,1.000 L211.000,1.000 L237.000,1.000 L246.492,15.239 C217.768,10.996 189.353,6.235 161.253,1.000 L187.000,1.000 ZM386.000,-0.000 L436.000,-0.000 L413.429,33.856 C397.594,32.648 381.830,31.293 366.142,29.786 L386.000,-0.000 ZM882.634,24.951 L866.000,-0.000 L916.000,-0.000 L928.766,19.150 C913.467,21.223 898.093,23.165 882.634,24.951 Z" class="cls-3"/>
</svg>
